<?xml version="1.0" encoding="UTF-8" standalone="no"?>
<svg width="28px" height="28px" viewBox="0 0 28 28" version="1.1" xmlns="http://www.w3.org/2000/svg" xmlns:xlink="http://www.w3.org/1999/xlink" xmlns:sketch="http://www.bohemiancoding.com/sketch/ns">
    <!-- Generator: Sketch 3.4 (15575) - http://www.bohemiancoding.com/sketch -->
    <title>myplanner_icon</title>
    <desc>Created with Sketch.</desc>
    <defs></defs>
    <g id="Page-1" stroke="none" stroke-width="1" fill="none" fill-rule="evenodd" sketch:type="MSPage">
        <g id="myplanner_icon" sketch:type="MSLayerGroup" fill="#999BBD">
            <g id="Group" sketch:type="MSShapeGroup">
                <path d="M14.1,2.4 C20.7,2.4 26.1,7.8 26.1,14.4 C26.1,21 20.7,26.4 14.1,26.4 C7.5,26.4 2.1,21 2.1,14.4 C2.4,7.5 7.8,2.4 14.1,2.4 L14.1,2.4 Z M14.1,0.9 C6.6,0.9 0.6,6.9 0.6,14.4 C0.6,21.9 6.6,27.9 14.1,27.9 C21.6,27.9 27.6,21.9 27.6,14.4 C27.6,6.9 21.6,0.9 14.1,0.9 L14.1,0.9 L14.1,0.9 Z" id="Shape"></path>
                <path d="M11.1,10.5 C11.1,10.8 10.8,11.4 10.2,11.4 L7.5,11.4 C7.2,11.4 6.6,11.1 6.6,10.5 L6.6,9 C6.6,8.7 6.9,8.1 7.5,8.1 L10.2,8.1 C10.5,8.1 11.1,8.4 11.1,9 L11.1,10.5 L11.1,10.5 Z M11.1,15 C11.1,15.3 10.8,15.9 10.2,15.9 L7.5,15.9 C7.2,15.9 6.6,15.6 6.6,15 L6.6,13.5 C6.6,13.2 6.9,12.6 7.5,12.6 L10.2,12.6 C10.5,12.6 11.1,12.9 11.1,13.5 L11.1,15 L11.1,15 Z M11.1,19.2 C11.1,19.5 10.8,20.1 10.2,20.1 L7.5,20.1 C7.2,20.1 6.6,19.8 6.6,19.2 L6.6,17.7 C6.6,17.4 6.9,16.8 7.5,16.8 L10.2,16.8 C10.5,16.8 11.1,17.1 11.1,17.7 L11.1,19.2 L11.1,19.2 Z M21.9,10.5 C21.9,10.8 21.6,11.4 21,11.4 L12.9,11.4 C12.6,11.4 12,11.1 12,10.5 L12,9 C12,8.7 12.3,8.1 12.9,8.1 L21,8.1 C21.3,8.1 21.9,8.4 21.9,9 L21.9,10.5 L21.9,10.5 Z M21.9,15 C21.9,15.3 21.6,15.9 21,15.9 L12.9,15.9 C12.6,15.9 12,15.6 12,15 L12,13.5 C12,13.2 12.3,12.6 12.9,12.6 L21,12.6 C21.3,12.6 21.9,12.9 21.9,13.5 L21.9,15 L21.9,15 Z M21.9,19.2 C21.9,19.5 21.6,20.1 21,20.1 L12.9,20.1 C12.6,20.1 12,19.8 12,19.2 L12,17.7 C12,17.4 12.3,16.8 12.9,16.8 L21,16.8 C21.3,16.8 21.9,17.1 21.9,17.7 L21.9,19.2 L21.9,19.2 Z" id="Shape"></path>
            </g>
        </g>
    </g>
</svg>